<svg width="158" height="176" viewBox="0 0 158 176" fill="none" xmlns="http://www.w3.org/2000/svg">
<path opacity="0.3" fill-rule="evenodd" clip-rule="evenodd" d="M61.6858 0.310138C60.2423 0.743258 58.4787 1.92884 57.3177 3.24641L56.2695 4.43646H46.4175C35.952 4.43646 34.6595 4.60799 33.8562 6.10363C33.6513 6.48518 33.4837 7.34902 33.4837 8.0231V9.2489H28.1537C24.9269 9.2489 22.4863 9.40221 21.9685 9.63733C20.2532 10.4159 19.9897 13.1679 21.5277 14.2411C22.0965 14.6385 23.4762 14.7488 27.8694 14.7488H33.4837V16.8113V18.8738H22.4307H11.3774L10.531 19.7177L9.6842 20.5612V92.7254C9.6842 163.256 9.69903 164.908 10.3433 165.701L11.0025 166.512L25.7361 166.609C38.4982 166.693 40.578 166.636 41.2762 166.179C42.9945 165.058 43.1694 163.252 41.6925 161.882C40.9664 161.207 40.5235 161.184 28.0723 161.184H15.2029V92.779V24.3737H24.3433H33.4837V25.1719C33.4837 27.7441 35.5694 30.9667 38.2519 32.538L39.8647 33.483H64.699C89.4995 33.483 89.535 33.4819 90.913 32.7398C93.6289 31.2765 95.8898 27.9944 95.9067 25.4909L95.9143 24.3737H105.242H114.569L114.45 65.1935C114.316 111.215 114.531 107.615 111.549 113.742C110.178 116.558 109.511 117.448 106.646 120.285C103.964 122.942 102.77 123.847 100.398 125.022C96.1627 127.122 92.9304 127.841 87.7307 127.841C81.3918 127.841 81.1093 128.085 81.0938 133.569C81.0696 141.959 78.9008 147.749 73.7618 153.141C70.3709 156.699 66.4243 159.076 61.8058 160.344C60.7411 160.636 57.8606 160.969 55.4044 161.082C51.3509 161.27 50.8653 161.362 50.1444 162.08C48.6236 163.596 49.4208 166 51.6269 166.552C53.4532 167.009 66.2784 166.423 70.4516 165.692C78.7552 164.237 87.8963 160.467 94.5188 155.765C98.2377 153.125 103.613 148.128 106.37 144.749C111.794 138.1 115.797 130.183 117.965 121.817C119.724 115.027 119.71 115.491 119.712 66.2845L119.714 20.3687L118.916 19.6211C118.13 18.8858 117.939 18.8738 107.016 18.8738H95.9143V16.8075V14.7409L109.797 14.831L123.68 14.9207L123.767 92.3992C123.831 149.384 123.752 170.001 123.467 170.343C122.914 171.007 7.029 171.042 6.12634 170.38C5.57792 169.977 5.54653 165.008 5.62931 92.4353L5.71761 14.9207L9.02954 14.7488C10.9866 14.6474 12.5601 14.3955 12.8761 14.1332C14.214 13.0222 13.8329 10.3644 12.2314 9.63733C11.1384 9.14062 6.47816 9.13787 4.69078 9.63217C2.93238 10.1189 0.899416 12.145 0.411009 13.8974C-0.147073 15.9011 -0.131896 169.9 0.42653 171.531C0.972884 173.126 1.90934 174.273 3.41561 175.19L4.68285 175.962L64.6266 175.964C124.087 175.965 124.581 175.96 125.936 175.271C126.687 174.889 127.728 173.934 128.25 173.148L129.199 171.719L129.293 93.3198C129.378 22.4085 129.335 14.7829 128.839 13.4759C128.178 11.7304 126.408 10.1031 124.638 9.61327C123.83 9.38983 118.128 9.25199 109.625 9.25096L95.9143 9.2489V8.0231C95.9143 7.34902 95.7467 6.48518 95.5418 6.10363C94.7388 4.60833 93.4454 4.43646 82.9901 4.43646H73.1478L71.8551 3.00751C70.0194 0.978036 67.6733 -0.0318886 64.8715 0.000767226C63.6384 0.0152045 62.2049 0.154421 61.6858 0.310138ZM67.0324 5.86678C67.367 6.04175 68.052 6.83546 68.5549 7.63089C69.0574 8.42631 69.7148 9.2654 70.0156 9.49571C70.4161 9.80233 73.2648 9.91748 80.6516 9.92539L90.7405 9.93639L90.7322 16.8972C90.7229 24.6796 90.4901 26.2615 89.1873 27.3815L88.2874 28.1549H64.7063H41.1251L40.0638 27.0972L39.0024 26.0395V17.9879V9.93639H48.8554C54.9767 9.93639 58.9606 9.80198 59.3741 9.5813C59.7408 9.38571 60.3423 8.636 60.7114 7.91482C61.9776 5.44157 64.5945 4.59389 67.0324 5.86678ZM43.8965 19.5747C42.7835 20.608 42.7707 22.392 43.8679 23.5143C44.5225 24.184 45.0523 24.2039 64.2772 24.2871C85.6219 24.3795 85.3008 24.4053 86.2014 22.5333C86.7432 21.4075 86.2472 19.7644 85.1973 19.2045C84.821 19.0037 76.7347 18.8738 64.6142 18.8738C45.0009 18.8738 44.6381 18.8861 43.8965 19.5747ZM141.188 39.1761C138.748 40.1372 135.845 42.8442 134.647 45.2769L133.683 47.2328L133.587 69.8327C133.484 94.1795 133.46 93.8165 135.246 94.9281C135.913 95.3434 135.925 95.8913 135.93 126.463C135.934 155.471 135.978 157.784 136.577 160.669C137.665 165.905 140.521 172.11 143.118 174.881C144.36 176.206 146.346 176.376 147.748 175.277C149.528 173.881 152.339 168.797 153.857 164.226C155.504 159.269 155.581 157.53 155.583 125.366C155.585 98.9204 155.649 95.1839 156.103 94.9305C157.185 94.3273 158 92.0331 158 89.5901C158 87.2038 157.643 86.0733 156.65 85.3136C155.744 84.6199 154.246 84.8014 153.328 85.7168C152.633 86.4094 152.481 86.901 152.481 88.4668V90.3728H145.755H139.029V69.5625C139.029 49.4627 139.053 48.7064 139.716 47.4108C140.957 44.9867 144.263 43.291 146.733 43.8118C148.297 44.1415 150.243 45.2886 151.012 46.3335C152.403 48.2255 152.481 49.1086 152.492 63.0103C152.504 77.1624 152.496 77.0922 154.097 77.942C155.262 78.56 155.898 78.427 156.992 77.337L158 76.3322V62.9719C158 48.21 157.862 46.9667 155.878 43.8854C154.616 41.9264 153.328 40.7996 150.966 39.5882C148.505 38.3263 143.843 38.1297 141.188 39.1761ZM54.3514 39.8343C53.972 39.9918 52.9772 40.8236 52.1408 41.683C50.9219 42.9349 50.4983 43.1804 50.0078 42.9188C49.6522 42.7294 43.9762 42.5922 36.4766 42.5922C24.2726 42.5922 23.5124 42.6286 22.7432 43.2491L21.9289 43.906L21.8306 56.7941L21.7326 69.6821L22.577 70.6604L23.4213 71.6387H36.588H49.7546L50.5873 70.6742L51.4196 69.7096V59.8527V49.9958L54.5159 46.8956C58.0648 43.3423 58.5539 42.2412 57.2287 40.7855C56.2878 39.7515 55.3217 39.4322 54.3514 39.8343ZM57.9982 48.3104C57.0556 49.5046 57.0883 50.8837 58.0814 51.8135L58.8799 52.5608H81.5111H104.142L104.857 51.6551C105.806 50.4537 105.76 49.2794 104.725 48.2485L103.879 47.4046H81.2959H58.7129L57.9982 48.3104ZM41.9356 51.872L38.1546 55.6518L35.9054 53.4374C34.6682 52.2191 33.215 51.0583 32.6759 50.8569C30.6336 50.0951 28.5075 52.2659 29.3385 54.2644C29.5589 54.7948 31.3352 56.7944 33.2861 58.7073C37.9953 63.3256 37.9359 63.3245 42.4999 58.8558L45.9008 55.526V60.9183V66.3107H36.588H27.2751V57.2014V48.0921H36.4959H45.7167L41.9356 51.872ZM143.964 53.3903L142.996 54.2194L142.909 69.1166C142.816 85.1555 142.831 85.3143 144.6 86.1595C145.685 86.6783 147.484 86.173 148.005 85.2032C148.21 84.8203 148.342 78.6446 148.342 69.4112V54.2483L147.495 53.4047C146.423 52.336 145.2 52.3312 143.964 53.3903ZM58.8354 57.0828C57.0745 58.0425 56.7551 59.9716 58.13 61.3418L58.9764 62.1857H69.4741C81.1431 62.1857 81.1941 62.1761 81.6394 59.8792C81.8185 58.9559 81.6822 58.6052 80.8047 57.7308L79.7562 56.6858L69.6407 56.6961C62.9879 56.703 59.2889 56.8353 58.8354 57.0828ZM52.325 74.5502C50.5662 76.2081 50.4745 76.2483 49.2404 75.9091C48.4533 75.6925 43.2926 75.598 35.6947 75.6612L23.4207 75.7636L22.5884 76.7282L21.7564 77.6927V90.4076V103.123L22.6032 103.966L23.4496 104.81H36.5342C48.8999 104.81 49.6632 104.774 50.4328 104.154L51.2471 103.497L51.3485 93.417L51.4503 83.3377L54.5145 80.2234C57.8441 76.8399 58.3228 75.8881 57.4964 74.2955C56.4209 72.2224 54.7049 72.3069 52.325 74.5502ZM58.8354 80.8012C57.0745 81.761 56.7551 83.6901 58.13 85.0602L58.9764 85.9041H81.4277H103.879L104.725 85.0602C105.865 83.9252 105.808 82.6489 104.564 81.409L103.556 80.4042L81.5404 80.4145C66.2725 80.4217 59.3138 80.5403 58.8354 80.8012ZM41.8594 84.9437L37.9942 88.7957L35.4308 86.3187C32.4669 83.4546 31.6267 83.2336 29.9728 84.8815C29.1325 85.7189 28.9739 86.1039 29.1574 86.858C29.4288 87.9735 36.4148 95.121 37.5044 95.3984C38.6051 95.6782 39.5429 95.0519 42.8828 91.8063L45.9008 88.8734V94.2637V99.654H36.588H27.2751V90.3728V81.0917H36.4997H45.7246L41.8594 84.9437ZM58.13 90.873C56.6027 92.3947 57.3112 94.8395 59.4304 95.3609C59.8619 95.4671 67.9509 95.5098 77.4055 95.4555L94.596 95.3571L95.2552 94.5456C96.2306 93.3445 96.1171 91.6127 95.0054 90.7417C94.1131 90.0418 93.7793 90.0291 76.5367 90.0291H58.9764L58.13 90.873ZM150.067 97.9352V99.9977H145.583H141.099V97.9352V95.8728H145.583H150.067V97.9352ZM150.067 128.872V152.247H145.583H141.099V128.872V105.498H145.583H150.067V128.872ZM52.237 107.94C50.6987 109.473 50.3858 109.647 49.7633 109.315C48.7706 108.786 24.5292 108.787 23.3627 109.317C22.9005 109.527 22.35 110.075 22.1393 110.536C21.6078 111.698 21.6078 135.39 22.1393 136.553C22.35 137.013 22.9005 137.562 23.3627 137.772C23.9291 138.029 28.2461 138.153 36.588 138.153C44.9299 138.153 49.2469 138.029 49.8133 137.772C51.3092 137.092 51.4196 136.287 51.4196 126.041V116.367L54.6963 113.043C58.3121 109.375 58.6477 108.545 57.1263 107.029C55.7035 105.611 54.3152 105.87 52.237 107.94ZM58.13 114.591C56.7703 115.946 57.0314 117.891 58.6877 118.745C59.5142 119.17 63.023 119.247 81.6094 119.247H103.556L104.564 118.243C105.808 117.003 105.865 115.726 104.725 114.591L103.879 113.748H81.4277H58.9764L58.13 114.591ZM41.8494 118.297L37.9746 122.159L35.4622 119.672C32.9553 117.19 32.123 116.803 30.5674 117.398C29.7489 117.712 28.9525 119.455 29.1926 120.409C29.3064 120.861 31.0717 122.874 33.1146 124.88C38.0401 129.717 37.9677 129.715 42.5317 125.184L45.9008 121.839V127.246V132.654H36.588H27.2751V123.544V114.435H36.4997H45.7246L41.8494 118.297ZM110.943 126.107C106.132 138.521 97.5955 148.289 85.9116 154.75C83.9756 155.821 76.9951 158.778 76.4039 158.778C76.2911 158.778 76.9978 157.889 77.975 156.802C83.1788 151.011 85.9258 144.546 86.4587 136.837L86.6932 133.439L90.3552 133.24C97.8228 132.833 104.838 129.794 110.056 124.706C111.099 123.689 112.001 122.878 112.059 122.905C112.117 122.931 111.615 124.372 110.943 126.107ZM58.0331 124.168C57.0894 125.169 57.0763 126.455 57.9982 127.623L58.7129 128.529H67.1135H75.514L76.2287 127.623C76.6219 127.125 76.9437 126.372 76.9437 125.95C76.9437 125.529 76.6219 124.776 76.2287 124.278L75.514 123.372H67.1486C58.8502 123.372 58.7771 123.379 58.0331 124.168ZM149.717 158.177C149.695 160.057 147.734 165.748 146.298 168.102L145.638 169.182L144.452 166.816C143.117 164.154 142.285 161.789 141.837 159.38L141.533 157.747H145.627C148.676 157.747 149.721 157.857 149.717 158.177Z" fill="white"/>
</svg>
